<svg xmlns="http://www.w3.org/2000/svg" data-name="Layer 1" viewBox="0 0 100 125" x="0px" y="0px"><title>collections_05</title><path d="M78.58,69.31h0v-3.5a4,4,0,0,0-2.18-3.56c-18.14-9.2-17.79-22.94-16.8-28.42A4,4,0,0,0,58,29.94L46.53,21.47a4,4,0,0,0-5.62.88L26.54,42.24,26.26,42a2,2,0,0,0-2.8.38l-3.63,4.78A2,2,0,0,0,20.2,50L56.34,77.48a9.06,9.06,0,0,0,5.45,1.84H78.58a2,2,0,0,0,2-2v-6A2,2,0,0,0,78.58,69.31ZM42.53,23.52a2,2,0,0,1,2.81-.44l11.48,8.47a2,2,0,0,1,.79,1.93,25.67,25.67,0,0,0-.37,5.36l-4.21,1a1,1,0,0,0,.24,2l0.24,0,3.87-.95c0.08,0.68.18,1.39,0.33,2.11l-4.18,1a1,1,0,0,0,.24,2l0.24,0,4.16-1c0.19,0.68.41,1.38,0.67,2.08l-3.95,1a1,1,0,0,0,.24,2l0.24,0,4.26-1c0.29,0.62.59,1.22,0.93,1.82l-3.41.83a1,1,0,0,0,.24,2l0.24,0,4-1c3.08,4.58,7.7,8.46,13.81,11.56a2,2,0,0,1,1.08,1.77v3.5H64.49a7,7,0,0,1-4.24-1.43L28.13,43.45Zm36.05,53.8H61.79a7.05,7.05,0,0,1-4.24-1.43L21.42,48.39,25,43.62,59,69.48a9.06,9.06,0,0,0,5.45,1.84H78.58v6Z"/><text x="0" y="115" fill="#000000" font-size="5px" font-weight="bold" font-family="'Helvetica Neue', Helvetica, Arial-Unicode, Arial, Sans-serif">Created by Hare Krishna</text><text x="0" y="120" fill="#000000" font-size="5px" font-weight="bold" font-family="'Helvetica Neue', Helvetica, Arial-Unicode, Arial, Sans-serif">from the Noun Project</text></svg>