<?xml version="1.0" encoding="UTF-8" standalone="no"?>
<svg
   xmlns:dc="http://purl.org/dc/elements/1.1/"
   xmlns:cc="http://creativecommons.org/ns#"
   xmlns:rdf="http://www.w3.org/1999/02/22-rdf-syntax-ns#"
   xmlns:svg="http://www.w3.org/2000/svg"
   xmlns="http://www.w3.org/2000/svg"
   xmlns:sodipodi="http://sodipodi.sourceforge.net/DTD/sodipodi-0.dtd"
   xmlns:inkscape="http://www.inkscape.org/namespaces/inkscape"
   data-name="Layer 1"
   viewBox="0 0 100 100"
   x="0px"
   y="0px"
   version="1.1"
   id="svg3762"
   sodipodi:docname="noun_shoe_white.svg"
   inkscape:version="0.92.3 (2405546, 2018-03-11)"
   width="100"
   height="100">
  <metadata
     id="metadata3768">
    <rdf:RDF>
      <cc:Work
         rdf:about="">
        <dc:format>image/svg+xml</dc:format>
        <dc:type
           rdf:resource="http://purl.org/dc/dcmitype/StillImage" />
        <dc:title>collections_05</dc:title>
      </cc:Work>
    </rdf:RDF>
  </metadata>
  <defs
     id="defs3766" />
  <sodipodi:namedview
     pagecolor="#ffffff"
     bordercolor="#666666"
     borderopacity="1"
     objecttolerance="10"
     gridtolerance="10"
     guidetolerance="10"
     inkscape:pageopacity="0"
     inkscape:pageshadow="2"
     inkscape:window-width="454"
     inkscape:window-height="405"
     id="namedview3764"
     showgrid="false"
     inkscape:zoom="6.784"
     inkscape:cx="50.206094"
     inkscape:cy="39.555375"
     inkscape:window-x="585"
     inkscape:window-y="176"
     inkscape:window-maximized="0"
     inkscape:current-layer="svg3762" />
  <title
     id="title3754">collections_05</title>
  <path
     style="fill:#ffffff;stroke-width:0.24588843"
     d="M 67.064234,99.643225 C 65.396741,99.383241 63.292186,98.627698 61.958578,97.810273 60.046934,96.63855 0.99260171,49.676956 0.57431062,48.995854 0.33333963,48.603484 0.1536279,47.825245 0.15290094,47.170951 0.15170513,46.095774 0.33842183,45.770871 3.3994424,41.52168 5.1857385,39.042013 6.9897447,36.758979 7.4083445,36.44827 8.3728133,35.732381 9.8150649,35.707327 10.87152,36.388109 l 0.783308,0.504765 12.060167,-17.413807 C 32.467455,6.8412994 36.024983,1.894189 36.686021,1.4415238 c 2.01611,-1.38058863 4.212593,-1.59722686 6.208576,-0.61235144 0.662215,0.32675604 5.592707,3.97540144 10.956648,8.10810174 10.452996,8.0536079 11.01902,8.5971319 11.519162,11.0612559 0.177018,0.87214 0.151421,1.911733 -0.09439,3.833036 -0.439119,3.432302 -0.435632,8.536665 0.0078,11.604852 1.292094,8.93762 4.783346,16.183624 11.082602,23.001662 4.163218,4.506086 8.535949,7.914811 14.689132,11.450792 4.809492,2.763817 5.418123,3.856561 5.418123,9.727745 0,3.373732 0.01421,3.469531 0.513389,3.469531 0.813764,0 2.048853,0.934744 2.408144,1.822541 0.247161,0.610721 0.32934,2.28897 0.32934,6.725585 0,6.465902 -0.04849,6.715399 -1.497571,7.705725 -0.599584,0.409765 -1.738331,0.445567 -15.22759,0.478746 -8.01875,0.01974 -15.189628,-0.05926 -15.935285,-0.175516 z M 96.714613,91.371744 V 86.09909 H 84.204582 c -8.088326,0 -12.961062,-0.09673 -13.786111,-0.273698 C 67.537374,85.207444 65.760564,83.976609 52.286009,73.264641 22.589714,49.656757 9.2828825,39.147365 9.0872282,39.147365 c -0.2014062,0 -5.7380541,7.546693 -5.8631047,7.991664 -0.034339,0.122179 3.8386246,3.319902 8.6065725,7.106068 41.261409,32.765168 51.063171,40.486564 52.121691,41.059172 2.347757,1.270025 2.70579,1.295893 18.253698,1.318774 l 14.508528,0.02136 z M 93.3009,79.713992 C 93.231646,76.49566 93.166264,76.011653 92.715815,75.382884 92.436899,74.993551 90.851938,73.88411 89.193677,72.917457 83.626408,69.672118 79.525984,66.579386 75.593727,62.659748 73.630395,60.702713 70.470876,56.895326 69.262793,55.030642 l -0.361208,-0.55753 -3.250874,0.867987 c -3.70791,0.990013 -4.245549,1.041381 -4.857349,0.464088 -0.491136,-0.463432 -0.592642,-1.836055 -0.168478,-2.278316 0.149542,-0.155922 1.709766,-0.651644 3.467163,-1.101608 l 3.195274,-0.81812 -0.749586,-1.584931 c -0.437086,-0.92418 -0.903723,-1.583682 -1.119312,-1.581933 -0.203347,0.0017 -1.724256,0.339259 -3.379794,0.750237 -1.655537,0.410978 -3.362245,0.748583 -3.792685,0.750235 -0.863276,0.0032 -1.74584,-0.728489 -1.74584,-1.447604 0,-1.128333 0.618455,-1.47637 4.340651,-2.442712 2.284182,-0.593013 3.594893,-1.047493 3.530114,-1.224052 -0.05667,-0.154457 -0.301001,-0.958736 -0.542964,-1.787297 -0.241958,-0.828558 -0.465098,-1.545703 -0.495865,-1.593653 -0.03076,-0.04795 -1.753946,0.332857 -3.829287,0.846236 l -3.773348,0.933416 -0.638073,-0.494449 c -0.35094,-0.271945 -0.669756,-0.765839 -0.708483,-1.09754 -0.136701,-1.170963 0.395037,-1.480446 4.235568,-2.465161 2.011809,-0.515832 3.722501,-1.005295 3.801533,-1.087702 0.145311,-0.151493 -0.27121,-3.421167 -0.461022,-3.619081 -0.05647,-0.05888 -1.409845,0.237012 -3.007479,0.657558 -1.597631,0.420549 -3.254767,0.764633 -3.682527,0.764633 -0.971598,0 -1.658483,-0.623926 -1.658483,-1.506473 0,-1.240376 0.30488,-1.36588 7.609009,-3.132267 0.471112,-0.113935 0.51478,-0.338804 0.646298,-3.328224 0.07758,-1.763321 0.26494,-4.025309 0.41636,-5.026637 0.322764,-2.134404 0.09834,-3.152067 -0.911258,-4.132333 C 60.543969,17.954558 42.617333,4.188826 41.834899,3.7558953 41.063464,3.3290523 39.604968,3.3723472 38.72225,3.8483003 38.22614,4.1157945 34.374881,9.4729609 26.184662,21.288306 19.682827,30.66796 14.312349,38.495132 14.250265,38.682026 c -0.07217,0.217258 4.551594,4.066512 12.820893,10.673305 7.113576,5.683422 18.873467,15.092584 26.133093,20.909243 7.259625,5.816661 13.639569,10.879524 14.177656,11.250803 0.538088,0.371281 1.696136,0.930167 2.57344,1.241971 1.562329,0.555272 1.81931,0.567052 12.509308,0.5734 l 10.914213,0.0065 z"
     id="path3770"
     inkscape:connector-curvature="0" />
</svg>
